<svg xmlns="http://www.w3.org/2000/svg" xmlns:xlink="http://www.w3.org/1999/xlink" version="1.1" id="Layer_33" x="0px" y="0px" width="100px" height="100px" viewBox="0 0 100 100" enable-background="new 0 0 100 100" xml:space="preserve">
<path fill="#000000" d="M50,12.868c-17.834,0-32.289,14.456-32.289,32.289c0,11.053,5.586,20.805,14.055,26.626l-0.047,0.035v14.062  c0,2.812,2.758,0,2.758,0l9.082-9.081c2.081,0.422,4.237,0.644,6.442,0.644c17.834,0,32.289-14.455,32.289-32.286  C82.289,27.324,67.834,12.868,50,12.868z M49.875,26.8c0.924-0.924,2.042-1.387,3.351-1.387c1.312,0,2.43,0.463,3.353,1.387  c0.924,0.925,1.389,2.042,1.389,3.352c0,1.31-0.465,2.428-1.389,3.352c-0.923,0.924-2.041,1.387-3.353,1.387  c-1.309,0-2.426-0.462-3.351-1.387c-0.924-0.924-1.386-2.042-1.386-3.352C48.489,28.842,48.951,27.725,49.875,26.8z M46.924,65.469  c-1.427,0-2.551-0.433-3.375-1.294c-0.826-0.865-1.24-2.046-1.24-3.546c0-1.035,0.128-2.016,0.376-2.938l3.981-14.921  c0.096-0.266,0.144-0.542,0.144-0.826c0-0.53-0.219-0.617-0.662-0.931c-0.443-0.312-1.201-0.132-2.275-0.132h-1.845l0.807-2.958  l12.911-0.715L49.955,58.58c-0.269,0.934-0.403,1.574-0.403,2.004c0,0.338,0.067,0.574,0.203,0.75  c0.134,0.179,0.322,0.257,0.558,0.257c0.531,0,1.209-0.418,2.031-1.243c1.375-1.365,2.721-3.296,4.038-5.791l2.103,1.206  C54.979,62.236,51.123,65.469,46.924,65.469z"/>
</svg>