<?xml version="1.0" encoding="utf-8"?>
<!-- Generator: Adobe Illustrator 17.1.0, SVG Export Plug-In . SVG Version: 6.00 Build 0)  -->
<!DOCTYPE svg PUBLIC "-//W3C//DTD SVG 1.1//EN" "http://www.w3.org/Graphics/SVG/1.1/DTD/svg11.dtd">
<svg version="1.1" id="Layer_1" xmlns="http://www.w3.org/2000/svg" xmlns:xlink="http://www.w3.org/1999/xlink" x="0px" y="0px"
	 viewBox="0 0 100 100" enable-background="new 0 0 100 100" xml:space="preserve">
<g id="Your_Icon" display="none">
	<circle display="inline" cx="50" cy="50" r="50"/>
</g>
<g id="Layer_2">
	<g>
		<path fill="#F9DB65" d="M15.8,86.5c8.9,8.4,21,13.5,34.2,13.5c4.5,0,8.8-0.6,12.9-1.7L33.4,68.9L15.8,86.5z"/>
		<path fill="#F9DB65" d="M98.1,63.7c1.2-4.3,1.9-8.9,1.9-13.7c0-4.5-0.6-8.8-1.7-12.9L84.9,50.5L98.1,63.7z"/>
		<path fill="#F9DB65" d="M32.4,34L14.8,51.6l0,0c-0.4,0.4-1,0.4-1.4,0s-0.4-1,0-1.4c0,0,0,0,0,0L31,32.6L13.9,15.4
			C5.3,24.4,0,36.6,0,50c0,13.7,5.5,26.1,14.4,35.1L49,50.5L32.4,34z M28.3,53.2c0-2.2,1.8-3.9,3.9-3.9c2.2,0,3.9,1.8,3.9,3.9
			l-3.9,6L28.3,53.2z"/>
		
			<rect x="47.3" y="18.1" transform="matrix(-0.7071 0.7071 -0.7071 -0.7071 128.3272 29.9125)" fill="#F9DB65" width="21.4" height="46.8"/>
		<path fill="#F9DB65" d="M62.1,1.5C58.2,0.5,54.2,0,50,0c-4.7,0-9.3,0.7-13.7,1.9L49,14.6L62.1,1.5z"/>
		<path fill="#F9DB65" d="M47.6,16L34.2,2.6C27,5,20.6,8.9,15.3,14l17.1,17.1L47.6,16z"/>
		<path fill="#F9DB65" d="M34.9,67.4l30.2,30.2c7.4-2.3,14-6.3,19.5-11.6L50.4,51.9L34.9,67.4z"/>
		<path fill="#F9DB65" d="M83.5,49.1l14.2-14.2c-5-15.7-17.5-28.1-33.4-32.8L50.4,16L83.5,49.1z"/>
		<path fill="#F9DB65" d="M68.4,67.1L86,84.7C91.1,79.4,95,73,97.4,65.8L83.5,51.9L68.4,67.1z"/>
		<circle fill="#F9DB65" cx="32.2" cy="52.9" r="1.8"/>
	</g>
</g>
</svg>
