<?xml version="1.0" encoding="utf-8"?>
<!-- Generator: Adobe Illustrator 17.1.0, SVG Export Plug-In . SVG Version: 6.00 Build 0)  -->
<!DOCTYPE svg PUBLIC "-//W3C//DTD SVG 1.1//EN" "http://www.w3.org/Graphics/SVG/1.1/DTD/svg11.dtd">
<svg version="1.1" id="Layer_1" xmlns="http://www.w3.org/2000/svg" xmlns:xlink="http://www.w3.org/1999/xlink" x="0px" y="0px"
	 viewBox="810 0 380 380" enable-background="new 810 0 380 380" xml:space="preserve">
<g id="Your_Icon" display="none">
	<circle display="inline" cx="1000" cy="190" r="190"/>
</g>
<g id="Layer_2">
	<g>
		<path d="M870,328.7c33.8,31.9,79.8,51.3,130,51.3c17.1,0,33.4-2.3,49-6.5L936.9,261.8L870,328.7z"/>
		<path d="M1182.8,242.1c4.6-16.3,7.2-33.8,7.2-52.1c0-17.1-2.3-33.4-6.5-49l-50.9,50.9L1182.8,242.1z"/>
		<path d="M933.1,129.2l-66.9,66.9l0,0c-1.5,1.5-3.8,1.5-5.3,0s-1.5-3.8,0-5.3l0,0l66.9-66.9l-65-65.4C830.1,92.7,810,139.1,810,190
			c0,52.1,20.9,99.2,54.7,133.4l131.5-131.5L933.1,129.2z M917.5,202.2c0-8.4,6.8-14.8,14.8-14.8c8.4,0,14.8,6.8,14.8,14.8
			L932.4,225L917.5,202.2z"/>
		<rect x="989.6" y="69.1" transform="matrix(-0.7071 0.7071 -0.7071 -0.7071 1870.4963 -458.7166)" width="81.3" height="177.8"/>
		<path d="M1046,5.7c-14.8-3.8-30-5.7-46-5.7c-17.9,0-35.3,2.7-52.1,7.2l48.3,48.3L1046,5.7z"/>
		<path d="M990.9,60.8L940,9.9c-27.4,9.1-51.7,23.9-71.8,43.3l65,65L990.9,60.8z"/>
		<path d="M942.6,256.1l114.8,114.8c28.1-8.7,53.2-23.9,74.1-44.1l-130-129.6L942.6,256.1z"/>
		<path d="M1127.3,186.6l54-54c-19-59.6-66.5-106.8-127-124.6l-52.8,52.8L1127.3,186.6z"/>
		<path d="M1069.9,255l66.9,66.9c19.4-20.1,34.2-44.5,43.3-71.8l-52.8-52.8L1069.9,255z"/>
		<circle cx="932.4" cy="201" r="6.8"/>
	</g>
</g>
</svg>
