<?xml version="1.0" encoding="utf-8"?>
<!-- Generator: Adobe Illustrator 17.1.0, SVG Export Plug-In . SVG Version: 6.00 Build 0)  -->
<!DOCTYPE svg PUBLIC "-//W3C//DTD SVG 1.1//EN" "http://www.w3.org/Graphics/SVG/1.1/DTD/svg11.dtd">
<svg version="1.1" id="Layer_1" xmlns="http://www.w3.org/2000/svg" xmlns:xlink="http://www.w3.org/1999/xlink" x="0px" y="0px"
	 viewBox="0 0 380 380" enable-background="new 0 0 380 380" xml:space="preserve">
<g id="Your_Icon" display="none">
	<circle display="inline" cx="190" cy="190" r="190"/>
</g>
<g id="Layer_2">
	<g>
		<path fill="#09D15B" d="M60,328.7c33.8,31.9,79.8,51.3,130,51.3c17.1,0,33.4-2.3,49-6.5L126.9,261.8L60,328.7z"/>
		<path fill="#09D15B" d="M372.8,242.1c4.6-16.3,7.2-33.8,7.2-52.1c0-17.1-2.3-33.4-6.5-49l-50.9,50.9L372.8,242.1z"/>
		<path fill="#09D15B" d="M123.1,129.2l-66.9,66.9l0,0c-1.5,1.5-3.8,1.5-5.3,0c-1.5-1.5-1.5-3.8,0-5.3l0,0l66.9-66.9l-65-65.4
			C20.1,92.7,0,139.1,0,190c0,52.1,20.9,99.2,54.7,133.4l131.5-131.5L123.1,129.2z M107.5,202.2c0-8.4,6.8-14.8,14.8-14.8
			c8.4,0,14.8,6.8,14.8,14.8L122.4,225L107.5,202.2z"/>
		
			<rect x="179.6" y="69.1" transform="matrix(0.7071 -0.7071 0.7071 0.7071 -47.2036 202.0456)" fill="#09D15B" width="81.3" height="177.8"/>
		<path fill="#09D15B" d="M236,5.7C221.2,1.9,206,0,190,0c-17.9,0-35.3,2.7-52.1,7.2l48.3,48.3L236,5.7z"/>
		<path fill="#09D15B" d="M180.9,60.8L130,9.9C102.6,19,78.3,33.8,58.1,53.2l65,65L180.9,60.8z"/>
		<path fill="#09D15B" d="M132.6,256.1l114.8,114.8c28.1-8.7,53.2-23.9,74.1-44.1l-130-129.6L132.6,256.1z"/>
		<path fill="#09D15B" d="M317.3,186.6l54-54C352.3,73,304.8,25.8,244.3,8l-52.8,52.8L317.3,186.6z"/>
		<path fill="#09D15B" d="M259.9,255l66.9,66.9c19.4-20.1,34.2-44.5,43.3-71.8l-52.8-52.8L259.9,255z"/>
		<circle fill="#09D15B" cx="122.4" cy="201" r="6.8"/>
	</g>
</g>
</svg>
