<?xml version="1.0" encoding="utf-8"?>
<!-- Generator: Adobe Illustrator 17.1.0, SVG Export Plug-In . SVG Version: 6.00 Build 0)  -->
<!DOCTYPE svg PUBLIC "-//W3C//DTD SVG 1.1//EN" "http://www.w3.org/Graphics/SVG/1.1/DTD/svg11.dtd">
<svg version="1.1" id="Your_Icon" xmlns="http://www.w3.org/2000/svg" xmlns:xlink="http://www.w3.org/1999/xlink" x="0px" y="0px"
	 viewBox="810 0 380 380" enable-background="new 810 0 380 380" xml:space="preserve">
<g>
	<path d="M999.8,0C896.1,0,811.7,85.1,811.7,190s84.4,190,188.1,190c104.1,0,188.1-85.1,188.1-190C1188.3,85.1,1103.9,0,999.8,0z
		 M1018.8,293.4h-35V258h35V293.4z M1031,197.6c-9.1,6.1-12.5,12.9-12.2,20.1v26.6h-34.6v-39.5c0-11.8,3.8-19.8,15.2-27l19.4-13.3
		c12.5-8.4,12.2-25.5,4.6-33.1c-6.8-6.5-18.2-10.3-30.4-8c-22.4,4.6-23.9,20.9-23.9,36.5v6.8h-34.6c0-29.3,3.4-42.6,18.6-59.3
		c17.1-19,41-22,63.5-17.5c22.4,4.6,48.6,26.6,48.6,58.1S1040.1,191.9,1031,197.6z"/>
</g>
</svg>
