<?xml version="1.0" encoding="utf-8"?>
<!-- Generator: Adobe Illustrator 17.1.0, SVG Export Plug-In . SVG Version: 6.00 Build 0)  -->
<!DOCTYPE svg PUBLIC "-//W3C//DTD SVG 1.1//EN" "http://www.w3.org/Graphics/SVG/1.1/DTD/svg11.dtd">
<svg version="1.1" id="Your_Icon" xmlns="http://www.w3.org/2000/svg" xmlns:xlink="http://www.w3.org/1999/xlink" x="0px" y="0px"
	 viewBox="0 0 99.1 100" enable-background="new 0 0 99.1 100" xml:space="preserve">
<g>
	<path fill="#FF3535" d="M49.5,0C22.2,0,0,22.4,0,50c0,27.6,22.2,50,49.5,50c27.4,0,49.5-22.4,49.5-50C99.1,22.4,76.9,0,49.5,0z
		 M54.5,77.2h-9.2v-9.3h9.2V77.2z M57.7,52c-2.4,1.6-3.3,3.4-3.2,5.3v7l-9.1,0V53.9c0-3.1,1-5.2,4-7.1l5.1-3.5
		c3.3-2.2,3.2-6.7,1.2-8.7c-1.8-1.7-4.8-2.7-8-2.1c-5.9,1.2-6.3,5.5-6.3,9.6v1.8h-9.1c0-7.7,0.9-11.2,4.9-15.6
		c4.5-5,10.8-5.8,16.7-4.6c5.9,1.2,12.8,7,12.8,15.3C66.7,47.3,60.1,50.5,57.7,52z"/>
</g>
</svg>
